<?xml version="1.0" encoding="UTF-8" standalone="no"?>
<!-- Created with Inkscape (http://www.inkscape.org/) -->

<svg
   version="1.1"
   id="svg1"
   width="2882.6934"
   height="961.47998"
   viewBox="0 0 2882.6934 961.47998"
   sodipodi:docname="SFT-Logo-June-2022-color.eps"
   xmlns:inkscape="http://www.inkscape.org/namespaces/inkscape"
   xmlns:sodipodi="http://sodipodi.sourceforge.net/DTD/sodipodi-0.dtd"
   xmlns="http://www.w3.org/2000/svg"
   xmlns:svg="http://www.w3.org/2000/svg">
  <defs
     id="defs1" />
  <sodipodi:namedview
     id="namedview1"
     pagecolor="#ffffff"
     bordercolor="#000000"
     borderopacity="0.25"
     inkscape:showpageshadow="2"
     inkscape:pageopacity="0.0"
     inkscape:pagecheckerboard="0"
     inkscape:deskcolor="#d1d1d1">
    <inkscape:page
       x="0"
       y="0"
       inkscape:label="1"
       id="page1"
       width="2882.6934"
       height="961.47998"
       margin="0"
       bleed="0" />
  </sodipodi:namedview>
  <g
     id="g1"
     inkscape:groupmode="layer"
     inkscape:label="1">
    <g
       id="group-R5">
      <path
         id="path2"
         d="M 21620.2,0 H 0 V 7211.11 H 21620.2 V 0"
         style="fill:#161514;fill-opacity:1;fill-rule:evenodd;stroke:none"
         transform="matrix(0.13333333,0,0,-0.13333333,0,961.48)" />
      <path
         id="path3"
         d="M 3568.82,623.039 V 2965.64 H 2913.19 V 3600.7 H 4807.27 V 2965.64 H 4151.64 V 623.039 h -582.82"
         style="fill:#ffffff;fill-opacity:1;fill-rule:nonzero;stroke:none"
         transform="matrix(0.13333333,0,0,-0.13333333,0,961.48)" />
      <path
         id="path4"
         d="m 6197.48,1239.25 c 155.37,0 271.96,25.07 349.68,75.26 77.71,50.12 129.88,138.77 156.61,265.77 26.72,127.03 40.06,304.98 40.06,533.94 0,225.8 -13.34,401.38 -40.06,526.85 -26.73,125.37 -78.9,214.02 -156.61,265.77 -77.72,51.75 -194.31,77.62 -349.68,77.62 -152.95,0 -268.95,-25.87 -347.85,-77.62 -78.95,-51.75 -132.35,-140.4 -160.27,-265.77 -27.91,-125.47 -41.89,-301.05 -41.89,-526.85 0,-228.96 13.98,-406.91 41.89,-533.94 27.92,-127 81.32,-215.65 160.27,-265.77 78.9,-50.19 194.9,-75.26 347.85,-75.26 z M 5064.7,2114.22 c 0,379.4 33.35,680.45 100.14,903.16 66.8,222.64 182.16,382.6 346.08,479.83 163.87,97.17 392.76,145.82 686.56,145.82 220.93,0 404.32,-26.67 550.01,-79.97 145.69,-53.38 261,-139.57 346.02,-258.73 84.98,-119.21 145.1,-276.8 180.32,-472.75 35.18,-196.03 52.82,-435.13 52.82,-717.36 0,-285.43 -17.64,-526.13 -52.82,-722.1 -35.22,-196.03 -95.34,-353.59 -180.32,-472.749 -85.02,-119.211 -200.33,-205.48 -346.02,-258.75 -145.69,-53.34 -329.08,-79.941 -550.01,-79.941 -220.98,0 -404.32,26.601 -550.01,79.941 -145.69,53.27 -261.05,139.539 -346.02,258.75 -85.03,119.159 -145.7,276.719 -182.1,472.749 -36.41,195.97 -54.65,436.67 -54.65,722.1"
         style="fill:#ffffff;fill-opacity:1;fill-rule:nonzero;stroke:none"
         transform="matrix(0.13333333,0,0,-0.13333333,0,961.48)" />
      <path
         id="path5"
         d="m 8596.7,1808.44 h -429.81 v -597.42 h 429.81 c 118.92,0 205.18,21.18 258.63,63.51 53.36,42.34 80.13,121.48 80.13,237.54 0,119.16 -26.77,198.3 -80.13,237.58 -53.45,39.17 -139.71,58.79 -258.63,58.79 z m -72.87,1199.53 h -356.94 v -583.29 h 356.94 c 118.96,0 205.18,19.55 258.63,58.79 53.41,39.18 80.13,116.79 80.13,232.85 0,112.9 -26.72,189.72 -80.13,230.49 -53.45,40.74 -139.67,61.16 -258.63,61.16 z m 1012.63,-1622.9 c 0,-250.94 -60.13,-440.648 -180.33,-569.179 C 9235.93,687.223 9024.04,623.039 8720.56,623.039 H 7584.08 V 3600.7 h 142.08 957.94 c 201.57,0 358.77,-27.5 471.7,-82.34 112.94,-54.9 192.43,-135.67 238.57,-242.26 46.1,-106.65 69.22,-239.9 69.22,-399.82 0,-219.58 -40.71,-389.71 -122.03,-510.39 -81.37,-120.78 -233.73,-193.68 -457.13,-218.75 V 2133 c 165.11,-15.72 295.04,-50.97 389.74,-105.81 94.71,-54.9 162.1,-134.08 202.16,-237.57 40.07,-103.49 60.13,-238.37 60.13,-404.55"
         style="fill:#ffffff;fill-opacity:1;fill-rule:nonzero;stroke:none"
         transform="matrix(0.13333333,0,0,-0.13333333,0,961.48)" />
      <path
         id="path6"
         d="m 10934,3064.43 c -24.3,-159.95 -59.6,-354.42 -105.6,-583.32 -46.2,-228.96 -94.8,-462.6 -145.7,-700.9 h 520.8 c -53.4,238.3 -103.2,471.94 -149.3,700.9 -46.2,228.9 -81.4,423.37 -105.7,583.32 z M 12088.6,637.141 v -14.102 h -619.2 c -17,75.223 -37,161.453 -60.1,258.691 -23.1,97.172 -48,200.66 -74.7,310.46 h -786.7 c -48.6,-219.538 -93.5,-409.229 -134.8,-569.151 h -619.21 v 9.383 L 10540.6,3600.7 h 801.3 l 746.7,-2963.559"
         style="fill:#ffffff;fill-opacity:1;fill-rule:nonzero;stroke:none"
         transform="matrix(0.13333333,0,0,-0.13333333,0,961.48)" />
      <path
         id="path7"
         d="M 14138.1,1267.48 V 674.781 c -116.5,-31.379 -230.7,-54.929 -342.3,-70.562 -111.8,-15.758 -244.1,-23.539 -397.1,-23.539 -196.7,0 -362.4,21.883 -497.2,65.84 -134.8,43.902 -242.8,121.511 -324.1,232.851 -81.4,111.309 -140.3,268.859 -176.7,472.779 -36.4,203.82 -54.6,465.7 -54.6,785.58 0,307.31 18.2,559.77 54.6,757.34 36.4,197.6 95.3,350.47 176.7,458.65 81.3,108.21 189.3,183.46 324.1,225.8 134.8,42.33 300.5,63.51 497.2,63.51 153,0 285.3,-7.05 397.1,-21.18 111.6,-14.1 225.8,-38.44 342.3,-72.89 V 2937.4 l -10.9,-9.38 c -102,31.3 -200.3,54.08 -295,68.21 -94.7,14.1 -211.3,21.15 -349.7,21.15 -111.7,0 -203.4,-10.21 -275,-30.56 -71.7,-20.45 -128.1,-60.42 -169.4,-119.95 -41.3,-59.63 -69.8,-147.45 -85.6,-263.45 -15.8,-116.06 -23.7,-271.28 -23.7,-465.69 0,-203.89 7.9,-367.73 23.7,-491.58 15.8,-123.93 44.3,-217.21 85.6,-279.9 41.3,-62.75 97.7,-105.12 169.4,-127 71.6,-21.98 163.3,-32.92 275,-32.92 136,0 251.9,5.42 347.8,16.46 95.9,10.94 192.5,32.12 289.6,63.48 l 18.2,-18.79"
         style="fill:#ffffff;fill-opacity:1;fill-rule:nonzero;stroke:none"
         transform="matrix(0.13333333,0,0,-0.13333333,0,961.48)" />
      <path
         id="path8"
         d="M 16187.7,1267.48 V 674.781 c -116.6,-31.379 -230.8,-54.929 -342.4,-70.562 -111.7,-15.758 -244.1,-23.539 -397,-23.539 -196.8,0 -362.5,21.883 -497.2,65.84 -134.8,43.902 -242.9,121.511 -324.2,232.851 -81.4,111.309 -140.2,268.859 -176.7,472.779 -36.4,203.82 -54.6,465.7 -54.6,785.58 0,307.31 18.2,559.77 54.6,757.34 36.5,197.6 95.3,350.47 176.7,458.65 81.3,108.21 189.4,183.46 324.2,225.8 134.7,42.33 300.4,63.51 497.2,63.51 152.9,0 285.3,-7.05 397,-21.18 111.6,-14.1 225.8,-38.44 342.4,-72.89 V 2937.4 l -11,-9.38 c -102,31.3 -200.3,54.08 -295,68.21 -94.7,14.1 -211.3,21.15 -349.7,21.15 -111.7,0 -203.4,-10.21 -275,-30.56 -71.6,-20.45 -128.1,-60.42 -169.3,-119.95 -41.4,-59.63 -69.9,-147.45 -85.7,-263.45 -15.8,-116.06 -23.6,-271.28 -23.6,-465.69 0,-203.89 7.8,-367.73 23.6,-491.58 15.8,-123.93 44.3,-217.21 85.7,-279.9 41.2,-62.75 97.7,-105.12 169.3,-127 71.6,-21.98 163.3,-32.92 275,-32.92 136,0 251.9,5.42 347.9,16.46 95.9,10.94 192.4,32.12 289.5,63.48 l 18.3,-18.79"
         style="fill:#ffffff;fill-opacity:1;fill-rule:nonzero;stroke:none"
         transform="matrix(0.13333333,0,0,-0.13333333,0,961.48)" />
      <path
         id="path9"
         d="m 17577.9,1239.25 c 155.4,0 271.9,25.07 349.7,75.26 77.7,50.12 129.8,138.77 156.6,265.77 26.7,127.03 40,304.98 40,533.94 0,225.8 -13.3,401.38 -40,526.85 -26.8,125.37 -78.9,214.02 -156.6,265.77 -77.8,51.75 -194.3,77.62 -349.7,77.62 -153,0 -269,-25.87 -347.9,-77.62 -78.9,-51.75 -132.3,-140.4 -160.2,-265.77 -27.9,-125.47 -41.9,-301.05 -41.9,-526.85 0,-228.96 14,-406.91 41.9,-533.94 27.9,-127 81.3,-215.65 160.2,-265.77 78.9,-50.19 194.9,-75.26 347.9,-75.26 z m -1132.8,874.97 c 0,379.4 33.4,680.45 100.1,903.16 66.8,222.64 182.2,382.6 346.1,479.83 163.9,97.17 392.8,145.82 686.6,145.82 220.9,0 404.3,-26.67 550,-79.97 145.7,-53.38 261,-139.57 346,-258.73 85,-119.21 145.1,-276.8 180.3,-472.75 35.2,-196.03 52.8,-435.13 52.8,-717.36 0,-285.43 -17.6,-526.13 -52.8,-722.1 -35.2,-196.03 -95.3,-353.59 -180.3,-472.749 -85,-119.211 -200.3,-205.48 -346,-258.75 -145.7,-53.34 -329.1,-79.941 -550,-79.941 -221,0 -404.3,26.601 -550,79.941 -145.7,53.27 -261.1,139.539 -346.1,258.75 -85,119.159 -145.6,276.719 -182.1,472.749 -36.4,195.97 -54.6,436.67 -54.6,722.1"
         style="fill:#ffffff;fill-opacity:1;fill-rule:nonzero;stroke:none"
         transform="matrix(0.13333333,0,0,-0.13333333,0,961.48)" />
      <path
         id="path10"
         d="m 1611.86,2327.06 c 162.95,-145.07 221.94,-349.13 377.82,-402.89 39.49,-13.6 101.66,-26.7 115.01,20.11 5.87,20.67 7.61,49.62 6.22,83.45 h 467.44 c 24,-138.55 31.88,-302.02 -80.08,-416 -98.28,-100.08 -276.64,-114.83 -468.07,-14.32 -164.04,86.19 -293.36,293.3 -378.49,447.26 -38.26,69.3 -80.02,137.07 -132.79,197.48 l 92.94,84.91"
         style="fill:#f9e60d;fill-opacity:1;fill-rule:evenodd;stroke:none"
         transform="matrix(0.13333333,0,0,-0.13333333,0,961.48)" />
      <path
         id="path11"
         d="m 2570.18,2071.6 h -462.6 c -1.53,15.27 -3.55,31.12 -5.97,47.28 -3.53,23.58 25.67,32.39 48.17,32.39 h 360.29 c 21.22,0 45.2,-7.7 49.43,-27.84 3.47,-16.55 7.13,-33.89 10.68,-51.83"
         style="fill:#f9e60d;fill-opacity:1;fill-rule:evenodd;stroke:none"
         transform="matrix(0.13333333,0,0,-0.13333333,0,961.48)" />
      <path
         id="path12"
         d="m 1585.98,2348.82 -89.7,-81.98 C 1381.41,2386.49 1215.7,2471.7 934.234,2471.7 v 49.49 c 0,0 350.216,34.07 616.536,-146.46 12.25,-8.36 23.94,-17.01 35.21,-25.91"
         style="fill:#f9e60d;fill-opacity:1;fill-rule:evenodd;stroke:none"
         transform="matrix(0.13333333,0,0,-0.13333333,0,961.48)" />
      <path
         id="path13"
         d="m 1463.47,1467.68 88.82,157.5 h -178.05 l -89.19,157.15 -89.2,-157.12 -178.07,-0.42 88.82,-157.11 -88.82,-157.56 h 178.01 0.04 l 89.22,-157.14 89.19,157.14 h 178.05 l -88.82,157.56"
         style="fill:#ffffff;fill-opacity:1;fill-rule:evenodd;stroke:none"
         transform="matrix(0.13333333,0,0,-0.13333333,0,961.48)" />
      <path
         id="path14"
         d="m 19957.3,2325.55 c -148.9,-132.62 -202.8,-319.18 -345.4,-368.33 -36.1,-12.42 -92.9,-24.4 -105.1,18.39 -5.4,18.89 -7,45.36 -5.7,76.29 h -427.3 c -22,-126.66 -29.2,-276.11 73.2,-380.31 89.8,-91.51 252.9,-104.99 427.9,-13.09 150,78.79 268.2,268.14 346,408.89 35,63.35 73.2,125.32 121.4,180.55 l -85,77.61"
         style="fill:#f9e60d;fill-opacity:1;fill-rule:evenodd;stroke:none"
         transform="matrix(0.13333333,0,0,-0.13333333,0,961.48)" />
      <path
         id="path15"
         d="m 19081.2,2092.01 h 423 c 1.4,13.96 3.2,28.45 5.4,43.23 3.2,21.55 -23.5,29.6 -44,29.6 h -329.4 c -19.4,0 -41.3,-7.04 -45.2,-25.44 -3.2,-15.14 -6.5,-30.99 -9.8,-47.39"
         style="fill:#f9e60d;fill-opacity:1;fill-rule:evenodd;stroke:none"
         transform="matrix(0.13333333,0,0,-0.13333333,0,961.48)" />
      <path
         id="path16"
         d="m 20020.8,2347.33 89.7,-81.99 c 114.9,119.65 280.6,204.86 562.1,204.86 v 49.49 c 0,0 -350.2,34.08 -616.6,-146.47 -12.2,-8.35 -23.9,-17 -35.2,-25.89"
         style="fill:#f9e60d;fill-opacity:1;fill-rule:evenodd;stroke:none"
         transform="matrix(0.13333333,0,0,-0.13333333,0,961.48)" />
      <path
         id="path17"
         d="m 20597.2,1469.19 88.8,157.5 h -178 l -89.2,157.14 -89.2,-157.12 -178.1,-0.41 88.8,-157.11 -88.8,-157.57 h 178 v 0 l 89.3,-157.14 89.2,157.14 h 178 l -88.8,157.57"
         style="fill:#ffffff;fill-opacity:1;fill-rule:evenodd;stroke:none"
         transform="matrix(0.13333333,0,0,-0.13333333,0,961.48)" />
      <path
         id="path18"
         d="m 13986.6,4062.19 h 563.1 v 900.6 h 1026.9 v 508.83 h -1026.9 v 603.63 h 1163.2 v 508.88 H 13986.6 V 4062.19"
         style="fill:#f9e60d;fill-opacity:1;fill-rule:nonzero;stroke:none"
         transform="matrix(0.13333333,0,0,-0.13333333,0,961.48)" />
      <path
         id="path19"
         d="m 17098.3,5446.98 h 264 c 99.5,0 175.5,-23.61 226,-70.18 50.5,-46.73 75.1,-112.93 75.1,-202.4 0,-87.86 -24.6,-153.7 -75.3,-201.3 -50.4,-47.3 -126.4,-71.29 -225.8,-71.29 h -264 z m 888.1,-613.19 c 56.7,95.22 85.5,209.81 85.5,340.61 0,130.66 -28.4,245.61 -84.3,341.67 -56.2,96.42 -137.3,171.86 -241.1,224.22 -103,51.93 -225.6,78.26 -364.5,78.26 h -687.8 V 4062.19 h 404.1 v 475.41 h 287.4 l 295.3,-475.41 h 439.4 l -352.9,563.62 c 92.9,50.08 166.5,119.95 218.9,207.98"
         style="fill:#f9e60d;fill-opacity:1;fill-rule:nonzero;stroke:none"
         transform="matrix(0.13333333,0,0,-0.13333333,0,961.48)" />
      <path
         id="path20"
         d="m 18651.1,4428.86 v 345.22 h 711.1 v 356.94 h -711.1 v 320.85 h 805.2 v 366.68 H 18249.2 V 4062.19 h 1235.5 v 366.67 h -833.6"
         style="fill:#f9e60d;fill-opacity:1;fill-rule:nonzero;stroke:none"
         transform="matrix(0.13333333,0,0,-0.13333333,0,961.48)" />
      <path
         id="path21"
         d="M 15944.4,4073.45 H 16450 V 5588.9 h -505.6 V 4073.45"
         style="fill:#f9e60d;fill-opacity:1;fill-rule:nonzero;stroke:none"
         transform="matrix(0.13333333,0,0,-0.13333333,0,961.48)" />
      <path
         id="path22"
         d="m 16313.7,6361.8 -120,233.59 -120.1,-233.6 -234.5,-0.6 117,-228.51 -117,-229.18 h 234.5 l 120.1,-233.59 120,233.59 h 234.5 l -117,229.19 117,229.11 h -234.5"
         style="fill:#ffffff;fill-opacity:1;fill-rule:nonzero;stroke:none"
         transform="matrix(0.13333333,0,0,-0.13333333,0,961.48)" />
      <path
         id="path23"
         d="m 3558.47,5464.06 c -105.01,43.56 -241.13,87.58 -404.58,130.82 l -0.42,0.11 c -154.73,38.07 -270.91,77.01 -345.32,115.76 -68.29,35.47 -101.48,88.01 -101.48,160.61 0,74.34 29.35,132.63 89.71,178.19 61.64,46.5 160.21,70.08 292.96,70.08 192.37,0 387.89,-61.9 581.13,-183.97 l 26.08,-16.48 170.39,467.03 -15.73,10.94 c -99.85,69.5 -217.86,123.52 -350.75,160.57 -132.53,36.88 -269.82,55.58 -408.07,55.58 -198.96,0 -370.14,-34.16 -508.79,-101.53 -139.71,-67.9 -245.82,-161.33 -315.37,-277.68 -69.46,-116.05 -104.68,-247.28 -104.68,-390.06 0,-164.28 39.42,-298.11 117.15,-397.77 76.95,-98.65 170.54,-171.32 278.17,-215.97 105.11,-43.61 241.22,-87.62 404.75,-130.87 103.98,-26.7 188.26,-51.73 250.44,-74.35 58.92,-21.57 107.6,-50.25 144.69,-85.25 34.93,-32.94 51.92,-73.37 51.92,-123.62 0,-69.4 -29.56,-123.58 -90.39,-165.64 -62.76,-43.48 -163.15,-65.53 -298.37,-65.53 -123.37,0 -248.38,22.46 -371.56,66.77 -123.42,44.39 -231.26,103.9 -320.5,176.87 l -26.14,21.38 -187.92,-464.5 13.62,-11.64 c 97.98,-83.71 229.19,-152.53 389.98,-204.53 160.01,-51.78 328.06,-78.03 499.47,-78.03 198.97,0 370.65,34.15 510.26,101.5 140.58,67.77 247.71,161.14 318.41,277.52 70.51,116.2 106.26,246.36 106.26,386.86 0,164.31 -39.46,297.06 -117.28,394.54 -76.94,96.24 -170.49,167.67 -278.04,212.29"
         style="fill:#f9e60d;fill-opacity:1;fill-rule:nonzero;stroke:none"
         transform="matrix(0.13333333,0,0,-0.13333333,0,961.48)" />
      <path
         id="path24"
         d="M 5896.74,4702.19 5565.15,5847.71 H 5199.8 l -341.97,-1136.4 -327.51,1136.4 H 4110.85 L 4628.7,4091.35 h 415.54 l 329.01,1092.99 318.67,-1092.99 h 417.94 l 515.61,1756.36 H 6234.55 L 5896.74,4702.19"
         style="fill:#f9e60d;fill-opacity:1;fill-rule:nonzero;stroke:none"
         transform="matrix(0.13333333,0,0,-0.13333333,0,961.48)" />
      <path
         id="path25"
         d="m 7167.78,4803.24 h 711.05 v 356.94 h -711.05 v 320.86 h 805.14 v 366.67 H 6765.85 V 4091.35 h 1235.49 v 366.67 h -833.56 v 345.22"
         style="fill:#f9e60d;fill-opacity:1;fill-rule:nonzero;stroke:none"
         transform="matrix(0.13333333,0,0,-0.13333333,0,961.48)" />
      <path
         id="path26"
         d="m 8551.99,4803.24 h 711.06 v 356.94 h -711.06 v 320.86 h 805.14 v 366.67 H 8150.06 V 4091.35 h 1235.49 v 366.67 h -833.56 v 345.22"
         style="fill:#f9e60d;fill-opacity:1;fill-rule:nonzero;stroke:none"
         transform="matrix(0.13333333,0,0,-0.13333333,0,961.48)" />
      <path
         id="path27"
         d="m 9534.27,5476.15 h 490.03 v -1384.8 h 404.2 v 1384.8 h 490.1 v 371.56 H 9534.27 v -371.56"
         style="fill:#f9e60d;fill-opacity:1;fill-rule:nonzero;stroke:none"
         transform="matrix(0.13333333,0,0,-0.13333333,0,961.48)" />
      <path
         id="path28"
         d="m 12220,6629.84 c 0.7,0.87 2.2,0.75 2.8,-0.17 109,-165.38 104,-292.51 113.3,-402.26 38.4,-453.52 -509.5,-840.56 -509.5,-1282.42 0,-128.59 29.1,-252.3 131.4,-338.2 36.1,-30.34 76.7,-54.65 118.1,-76.99 7.3,-3.92 103,-59.11 88.5,-20.45 -37.9,101.33 -45.1,233.23 -29.5,324.87 22.3,130.32 90.8,253.41 193.7,337.13 1,0.85 2.6,0.04 2.5,-1.3 -9,-159.13 25.5,-320.53 99,-461.98 5.3,-10.26 11.6,-21.1 22.1,-25.8 17.2,-7.65 36.5,4.31 50.8,16.46 75.8,64 132,150.75 159.7,245.99 0.4,1.55 2.6,1.48 2.9,-0.1 49.6,-238.73 10,-494.95 -109.3,-707.6 -0.8,-1.53 1.1,-3.11 2.4,-1.94 138.2,124.66 209.5,312.42 220.5,498.46 11.1,189.19 -34.8,377.59 -99.5,555.72 -106.2,292.28 -228.9,584.76 -170.4,900.63 0.3,1.7 2.5,1.9 3,0.24 22.3,-75.87 57.1,-161.22 77.9,-209.26 91.5,-211.7 273.6,-363.42 364.7,-573.66 181.1,-417.97 -3.4,-964.28 -379.6,-1211.16 -39.1,-25.67 -82,-45.38 -126.5,-59.67 -155.4,-49.84 -233,-27.1 -395.5,22.8 -133.7,41.05 -286.2,152.01 -370,247.32 -82.4,93.71 -160.6,218.73 -186.3,340 -32.9,155.6 -17,343.46 42.7,493.75 54.5,137.32 157.3,248.4 253.4,357.86 126,143.65 234.8,304.11 308.6,480.92 36.4,87.04 64.1,177.68 81.6,270.4 9.2,48.39 15.5,97.31 19.1,146.44 3,40.81 -8.9,100.12 17.4,133.97"
         style="fill:#ed1a2c;fill-opacity:1;fill-rule:nonzero;stroke:none"
         transform="matrix(0.13333333,0,0,-0.13333333,0,961.48)" />
    </g>
  </g>
</svg>
