<?xml version="1.0" encoding="UTF-8" standalone="no"?>
<!-- Created with Inkscape (http://www.inkscape.org/) -->

<svg
   version="1.1"
   id="svg1"
   width="2633.5732"
   height="806.64001"
   viewBox="0 0 2633.5732 806.64001"
   sodipodi:docname="SFT-Logo-June-2022-black.eps"
   xmlns:inkscape="http://www.inkscape.org/namespaces/inkscape"
   xmlns:sodipodi="http://sodipodi.sourceforge.net/DTD/sodipodi-0.dtd"
   xmlns="http://www.w3.org/2000/svg"
   xmlns:svg="http://www.w3.org/2000/svg">
  <defs
     id="defs1" />
  <sodipodi:namedview
     id="namedview1"
     pagecolor="#ffffff"
     bordercolor="#000000"
     borderopacity="0.25"
     inkscape:showpageshadow="2"
     inkscape:pageopacity="0.0"
     inkscape:pagecheckerboard="0"
     inkscape:deskcolor="#d1d1d1">
    <inkscape:page
       x="0"
       y="0"
       inkscape:label="1"
       id="page1"
       width="2633.5732"
       height="806.64001"
       margin="0"
       bleed="0" />
  </sodipodi:namedview>
  <g
     id="g1"
     inkscape:groupmode="layer"
     inkscape:label="1">
    <g
       id="group-R5">
      <path
         id="path2"
         d="M 2634.59,42.3594 V 2384.96 h -655.63 v 635.06 H 3873.04 V 2384.96 H 3217.4 V 42.3594 h -582.81"
         style="fill:#161514;fill-opacity:1;fill-rule:nonzero;stroke:none"
         transform="matrix(0.13333333,0,0,-0.13333333,0,806.64)" />
      <path
         id="path3"
         d="m 5263.24,658.57 c 155.38,0 271.97,25.078 349.69,75.262 77.71,50.117 129.87,138.77 156.6,265.77 26.73,127.038 40.07,304.978 40.07,533.938 0,225.8 -13.34,401.39 -40.07,526.86 -26.73,125.37 -78.89,214.02 -156.6,265.77 -77.72,51.74 -194.31,77.61 -349.69,77.61 -152.95,0 -268.95,-25.87 -347.84,-77.61 -78.95,-51.75 -132.36,-140.4 -160.27,-265.77 -27.91,-125.47 -41.9,-301.06 -41.9,-526.86 0,-228.96 13.99,-406.9 41.9,-533.938 27.91,-127 81.32,-215.653 160.27,-265.77 78.89,-50.184 194.89,-75.262 347.84,-75.262 z m -1132.77,874.97 c 0,379.4 33.35,680.46 100.14,903.16 66.79,222.65 182.16,382.6 346.08,479.84 163.87,97.17 392.75,145.82 686.55,145.82 220.94,0 404.33,-26.67 550.01,-79.98 145.7,-53.37 261,-139.57 346.03,-258.72 84.97,-119.22 145.1,-276.81 180.32,-472.75 35.18,-196.04 52.81,-435.14 52.81,-717.37 0,-285.42 -17.63,-526.12 -52.81,-722.091 C 6304.38,615.41 6244.25,457.852 6159.28,338.699 6074.25,219.48 5958.95,133.219 5813.25,79.9492 5667.57,26.6094 5484.18,0 5263.24,0 5042.26,0 4858.93,26.6094 4713.23,79.9492 4567.55,133.219 4452.19,219.48 4367.21,338.699 c -85.02,119.153 -145.69,276.711 -182.1,472.75 -36.41,195.971 -54.64,436.671 -54.64,722.091"
         style="fill:#161514;fill-opacity:1;fill-rule:nonzero;stroke:none"
         transform="matrix(0.13333333,0,0,-0.13333333,0,806.64)" />
      <path
         id="path4"
         d="M 7662.47,1227.76 H 7232.66 V 630.34 h 429.81 c 118.91,0 205.17,21.18 258.63,63.519 53.35,42.332 80.13,121.481 80.13,237.543 0,119.148 -26.78,198.298 -80.13,237.568 -53.46,39.17 -139.72,58.79 -258.63,58.79 z M 7589.6,2427.29 H 7232.66 V 1844 h 356.94 c 118.96,0 205.17,19.56 258.62,58.8 53.41,39.17 80.14,116.79 80.14,232.85 0,112.9 -26.73,189.72 -80.14,230.49 -53.45,40.73 -139.66,61.15 -258.62,61.15 z M 8602.22,804.391 c 0,-250.93 -60.12,-440.649 -180.32,-569.18 C 8301.7,106.551 8089.81,42.3594 7786.33,42.3594 H 6649.85 V 3020.02 h 142.08 957.94 c 201.56,0 358.76,-27.5 471.7,-82.33 112.94,-54.91 192.43,-135.68 238.57,-242.27 46.09,-106.64 69.21,-239.89 69.21,-399.81 0,-219.58 -40.71,-389.72 -122.02,-510.4 -81.37,-120.78 -233.73,-193.67 -457.13,-218.75 v -14.13 c 165.1,-15.73 295.04,-50.98 389.74,-105.82 94.71,-54.9 162.09,-134.08 202.16,-237.57 40.06,-103.49 60.12,-238.37 60.12,-404.549"
         style="fill:#161514;fill-opacity:1;fill-rule:nonzero;stroke:none"
         transform="matrix(0.13333333,0,0,-0.13333333,0,806.64)" />
      <path
         id="path5"
         d="m 9999.74,2483.76 c -24.3,-159.96 -59.53,-354.43 -105.62,-583.32 -46.14,-228.96 -94.71,-462.61 -145.7,-700.91 h 520.88 c -53.5,238.3 -103.3,471.95 -149.4,700.91 -46.1,228.89 -81.3,423.36 -105.6,583.32 z M 11154.4,56.4609 V 42.3594 h -619.2 c -17.1,75.2306 -37.1,161.4606 -60.1,258.6916 -23.1,97.179 -48,200.66 -74.7,310.469 H 9613.65 C 9565.04,391.969 9520.13,202.289 9478.88,42.3594 h -619.22 v 9.3828 L 9606.34,3020.02 h 801.36 L 11154.4,56.4609"
         style="fill:#161514;fill-opacity:1;fill-rule:nonzero;stroke:none"
         transform="matrix(0.13333333,0,0,-0.13333333,0,806.64)" />
      <path
         id="path6"
         d="M 13203.9,686.813 V 94.1094 C 13087.4,62.7188 12973.2,39.1719 12861.5,23.5391 12749.8,7.78125 12617.5,0 12464.5,0 c -196.7,0 -362.5,21.8789 -497.2,65.8398 -134.8,43.9022 -242.8,121.5192 -324.2,232.8512 -81.4,111.309 -140.2,268.872 -176.6,472.778 -36.4,203.82 -54.7,465.701 -54.7,785.581 0,307.31 18.3,559.78 54.7,757.34 36.4,197.6 95.2,350.47 176.6,458.65 81.4,108.21 189.4,183.47 324.2,225.8 134.7,42.34 300.5,63.52 497.2,63.52 153,0 285.3,-7.05 397,-21.18 111.7,-14.1 225.9,-38.45 342.4,-72.9 v -611.55 l -10.9,-9.38 c -102,31.29 -200.4,54.07 -295.1,68.2 -94.7,14.1 -211.2,21.15 -349.6,21.15 -111.7,0 -203.4,-10.21 -275,-30.56 -71.7,-20.45 -128.2,-60.42 -169.4,-119.95 -41.3,-59.62 -69.8,-147.45 -85.6,-263.44 -15.8,-116.06 -23.7,-271.29 -23.7,-465.7 0,-203.88 7.9,-367.73 23.7,-491.57 15.8,-123.941 44.3,-217.218 85.6,-279.898 41.2,-62.762 97.7,-105.121 169.4,-127.012 71.6,-21.968 163.3,-32.922 275,-32.922 135.9,0 251.9,5.422 347.8,16.461 95.9,10.954 192.4,32.133 289.6,63.493 l 18.2,-18.789"
         style="fill:#161514;fill-opacity:1;fill-rule:nonzero;stroke:none"
         transform="matrix(0.13333333,0,0,-0.13333333,0,806.64)" />
      <path
         id="path7"
         d="M 15253.4,686.813 V 94.1094 C 15136.8,62.7188 15022.7,39.1719 14911,23.5391 14799.3,7.78125 14667,0 14514,0 14317.3,0 14151.6,21.8789 14016.8,65.8398 13882,109.742 13774,187.359 13692.6,298.691 13611.3,410 13552.4,567.563 13516,771.469 c -36.4,203.82 -54.7,465.701 -54.7,785.581 0,307.31 18.3,559.78 54.7,757.34 36.4,197.6 95.3,350.47 176.6,458.65 81.4,108.21 189.4,183.47 324.2,225.8 134.8,42.34 300.5,63.52 497.2,63.52 153,0 285.3,-7.05 397,-21.18 111.7,-14.1 225.8,-38.45 342.4,-72.9 v -611.55 l -10.9,-9.38 c -102,31.29 -200.4,54.07 -295.1,68.2 -94.7,14.1 -211.2,21.15 -349.6,21.15 -111.7,0 -203.4,-10.21 -275,-30.56 -71.7,-20.45 -128.1,-60.42 -169.4,-119.95 -41.3,-59.62 -69.8,-147.45 -85.6,-263.44 -15.8,-116.06 -23.7,-271.29 -23.7,-465.7 0,-203.88 7.9,-367.73 23.7,-491.57 15.8,-123.941 44.3,-217.218 85.6,-279.898 41.3,-62.762 97.7,-105.121 169.4,-127.012 71.6,-21.968 163.3,-32.922 275,-32.922 136,0 251.9,5.422 347.9,16.461 95.8,10.954 192.3,32.133 289.5,63.493 l 18.2,-18.789"
         style="fill:#161514;fill-opacity:1;fill-rule:nonzero;stroke:none"
         transform="matrix(0.13333333,0,0,-0.13333333,0,806.64)" />
      <path
         id="path8"
         d="m 16643.6,658.57 c 155.4,0 272,25.078 349.7,75.262 77.7,50.117 129.9,138.77 156.6,265.77 26.8,127.038 40.1,304.978 40.1,533.938 0,225.8 -13.3,401.39 -40.1,526.86 -26.7,125.37 -78.9,214.02 -156.6,265.77 -77.7,51.74 -194.3,77.61 -349.7,77.61 -152.9,0 -268.9,-25.87 -347.8,-77.61 -79,-51.75 -132.4,-140.4 -160.3,-265.77 -27.9,-125.47 -41.9,-301.06 -41.9,-526.86 0,-228.96 14,-406.9 41.9,-533.938 27.9,-127 81.3,-215.653 160.3,-265.77 78.9,-50.184 194.9,-75.262 347.8,-75.262 z m -1132.7,874.97 c 0,379.4 33.3,680.46 100.1,903.16 66.8,222.65 182.2,382.6 346.1,479.84 163.9,97.17 392.7,145.82 686.5,145.82 221,0 404.4,-26.67 550.1,-79.98 145.6,-53.37 261,-139.57 346,-258.72 85,-119.22 145.1,-276.81 180.3,-472.75 35.2,-196.04 52.8,-435.14 52.8,-717.37 0,-285.42 -17.6,-526.12 -52.8,-722.091 -35.2,-196.039 -95.3,-353.597 -180.3,-472.75 -85,-119.219 -200.4,-205.48 -346,-258.7498 C 17048,26.6094 16864.6,0 16643.6,0 c -220.9,0 -404.3,26.6094 -550,79.9492 -145.7,53.2698 -261,139.5308 -346,258.7498 -85,119.153 -145.7,276.711 -182.1,472.75 -36.4,195.971 -54.6,436.671 -54.6,722.091"
         style="fill:#161514;fill-opacity:1;fill-rule:nonzero;stroke:none"
         transform="matrix(0.13333333,0,0,-0.13333333,0,806.64)" />
      <path
         id="path9"
         d="m 677.629,1746.38 c 162.945,-145.07 221.934,-349.13 377.821,-402.89 39.48,-13.59 101.66,-26.69 115.01,20.12 5.87,20.66 7.6,49.61 6.22,83.44 h 467.44 c 24,-138.54 31.88,-302.02 -80.09,-415.99 -98.28,-100.091 -276.63,-114.83 -468.06,-14.32 -164.044,86.18 -293.365,293.29 -378.497,447.25 -38.254,69.31 -80.016,137.08 -132.789,197.49 l 92.945,84.9"
         style="fill:#161514;fill-opacity:1;fill-rule:evenodd;stroke:none"
         transform="matrix(0.13333333,0,0,-0.13333333,0,806.64)" />
      <path
         id="path10"
         d="m 1635.95,1490.93 h -462.6 c -1.54,15.27 -3.55,31.12 -5.98,47.28 -3.52,23.57 25.68,32.38 48.18,32.38 h 360.29 c 21.22,0 45.2,-7.7 49.43,-27.83 3.46,-16.56 7.13,-33.9 10.68,-51.83"
         style="fill:#161514;fill-opacity:1;fill-rule:evenodd;stroke:none"
         transform="matrix(0.13333333,0,0,-0.13333333,0,806.64)" />
      <path
         id="path11"
         d="m 651.746,1768.15 -89.703,-81.98 C 447.176,1805.82 281.473,1891.03 0,1891.03 v 49.49 c 0,0 350.215,34.07 616.539,-146.47 12.246,-8.35 23.938,-17 35.207,-25.9"
         style="fill:#161514;fill-opacity:1;fill-rule:evenodd;stroke:none"
         transform="matrix(0.13333333,0,0,-0.13333333,0,806.64)" />
      <path
         id="path12"
         d="m 529.238,887.012 88.821,157.498 H 440.012 L 350.813,1201.65 261.617,1044.54 83.5469,1044.12 172.363,887.012 83.5469,729.449 h 178.0121 0.035 l 89.219,-157.148 89.199,157.148 h 178.047 l -88.821,157.563"
         style="fill:#161514;fill-opacity:1;fill-rule:evenodd;stroke:none"
         transform="matrix(0.13333333,0,0,-0.13333333,0,806.64)" />
      <path
         id="path13"
         d="m 19061.2,1744.88 c -162.9,-145.07 -221.9,-349.13 -377.8,-402.89 -39.5,-13.59 -101.7,-26.69 -115,20.11 -5.9,20.67 -7.6,49.62 -6.2,83.45 h -467.5 c -24,-138.55 -31.9,-302.02 80.1,-415.99 98.3,-100.091 276.6,-114.841 468.1,-14.33 164,86.19 293.3,293.3 378.5,447.26 38.2,69.3 80,137.08 132.8,197.49 l -93,84.9"
         style="fill:#161514;fill-opacity:1;fill-rule:evenodd;stroke:none"
         transform="matrix(0.13333333,0,0,-0.13333333,0,806.64)" />
      <path
         id="path14"
         d="m 18102.9,1489.43 h 462.6 c 1.5,15.27 3.5,31.11 6,47.28 3.5,23.57 -25.7,32.38 -48.2,32.38 H 18163 c -21.2,0 -45.2,-7.7 -49.4,-27.84 -3.5,-16.55 -7.2,-33.89 -10.7,-51.82"
         style="fill:#161514;fill-opacity:1;fill-rule:evenodd;stroke:none"
         transform="matrix(0.13333333,0,0,-0.13333333,0,806.64)" />
      <path
         id="path15"
         d="m 19086.6,1766.65 89.7,-81.98 c 114.9,119.64 280.6,204.85 562,204.85 v 49.49 c 0,0 -350.2,34.08 -616.5,-146.46 -12.2,-8.35 -23.9,-17.01 -35.2,-25.9"
         style="fill:#161514;fill-opacity:1;fill-rule:evenodd;stroke:none"
         transform="matrix(0.13333333,0,0,-0.13333333,0,806.64)" />
      <path
         id="path16"
         d="m 19663,888.512 88.8,157.498 h -178.1 l -89.2,157.14 -89.2,-157.11 -178,-0.42 88.8,-157.108 -88.8,-157.563 h 178 v 0 l 89.2,-157.148 89.2,157.148 h 178.1 l -88.8,157.563"
         style="fill:#161514;fill-opacity:1;fill-rule:evenodd;stroke:none"
         transform="matrix(0.13333333,0,0,-0.13333333,0,806.64)" />
      <path
         id="path17"
         d="m 13052.4,3481.51 h 563.1 v 900.6 h 1026.9 v 508.83 h -1026.9 v 603.63 h 1163.1 v 508.89 H 13052.4 V 3481.51"
         style="fill:#161514;fill-opacity:1;fill-rule:nonzero;stroke:none"
         transform="matrix(0.13333333,0,0,-0.13333333,0,806.64)" />
      <path
         id="path18"
         d="m 16164.1,4866.31 h 264 c 99.5,0 175.5,-23.62 225.9,-70.18 50.6,-46.74 75.2,-112.94 75.2,-202.41 0,-87.86 -24.7,-153.7 -75.3,-201.29 -50.4,-47.31 -126.4,-71.29 -225.8,-71.29 h -264 z m 888,-613.2 c 56.8,95.22 85.6,209.82 85.6,340.61 0,130.66 -28.4,245.61 -84.3,341.68 -56.2,96.42 -137.3,171.86 -241.1,224.21 -103,51.93 -225.7,78.26 -364.6,78.26 H 15760 V 3481.51 h 404.1 v 475.42 h 287.3 l 295.4,-475.42 h 439.4 l -353,563.62 c 93,50.08 166.5,119.95 218.9,207.98"
         style="fill:#161514;fill-opacity:1;fill-rule:nonzero;stroke:none"
         transform="matrix(0.13333333,0,0,-0.13333333,0,806.64)" />
      <path
         id="path19"
         d="m 17716.9,3848.18 v 345.22 h 711 v 356.94 h -711 v 320.86 h 805.1 v 366.67 H 17315 V 3481.51 h 1235.5 v 366.67 h -833.6"
         style="fill:#161514;fill-opacity:1;fill-rule:nonzero;stroke:none"
         transform="matrix(0.13333333,0,0,-0.13333333,0,806.64)" />
      <path
         id="path20"
         d="m 15010.2,3492.77 h 505.6 v 1515.46 h -505.6 V 3492.77"
         style="fill:#161514;fill-opacity:1;fill-rule:nonzero;stroke:none"
         transform="matrix(0.13333333,0,0,-0.13333333,0,806.64)" />
      <path
         id="path21"
         d="m 15379.5,5781.13 -120.1,233.59 -120,-233.6 -234.5,-0.61 117,-228.51 -117,-229.17 h 234.5 l 120,-233.59 120.1,233.59 h 234.5 l -117,229.19 117,229.11 h -234.5"
         style="fill:#161514;fill-opacity:1;fill-rule:nonzero;stroke:none"
         transform="matrix(0.13333333,0,0,-0.13333333,0,806.64)" />
      <path
         id="path22"
         d="m 2624.24,4883.38 c -105.01,43.57 -241.13,87.58 -404.58,130.82 l -0.42,0.11 c -154.74,38.07 -270.91,77.02 -345.33,115.76 -68.28,35.48 -101.48,88.01 -101.48,160.62 0,74.33 29.35,132.62 89.72,178.19 61.64,46.49 160.21,70.07 292.96,70.07 192.37,0 387.88,-61.9 581.12,-183.97 l 26.09,-16.47 170.39,467.02 -15.73,10.95 c -99.85,69.49 -217.86,123.52 -350.75,160.57 -132.53,36.88 -269.83,55.57 -408.07,55.57 -198.96,0 -370.14,-34.16 -508.79,-101.53 -139.71,-67.89 -245.82,-161.32 -315.37,-277.67 -69.46,-116.05 -104.68,-247.29 -104.68,-390.06 0,-164.28 39.41,-298.11 117.15,-397.77 76.95,-98.66 170.53,-171.32 278.17,-215.98 105.1,-43.6 241.22,-87.62 404.75,-130.86 103.98,-26.71 188.25,-51.73 250.44,-74.36 58.92,-21.56 107.59,-50.24 144.68,-85.25 34.94,-32.93 51.92,-73.37 51.92,-123.62 0,-69.4 -29.55,-123.57 -90.38,-165.63 -62.77,-43.49 -163.16,-65.54 -298.37,-65.54 -123.38,0 -248.39,22.47 -371.56,66.77 -123.43,44.4 -231.26,103.9 -320.5,176.87 l -26.14,21.38 -187.92,-464.5 13.62,-11.64 c 97.98,-83.71 229.19,-152.53 389.98,-204.53 160.01,-51.77 328.06,-78.02 499.47,-78.02 198.97,0 370.65,34.15 510.26,101.49 140.58,67.78 247.7,161.15 318.41,277.52 70.51,116.2 106.26,246.36 106.26,386.86 0,164.32 -39.46,297.06 -117.29,394.55 -76.94,96.23 -170.48,167.66 -278.03,212.28"
         style="fill:#161514;fill-opacity:1;fill-rule:nonzero;stroke:none"
         transform="matrix(0.13333333,0,0,-0.13333333,0,806.64)" />
      <path
         id="path23"
         d="m 4962.51,4121.52 -331.6,1145.51 H 4265.57 L 3923.6,4130.64 3596.09,5267.03 h -419.47 l 517.85,-1756.35 h 415.54 l 329.01,1092.99 318.66,-1092.99 h 417.95 l 515.61,1756.35 h -390.93 l -337.8,-1145.51"
         style="fill:#161514;fill-opacity:1;fill-rule:nonzero;stroke:none"
         transform="matrix(0.13333333,0,0,-0.13333333,0,806.64)" />
      <path
         id="path24"
         d="m 6233.55,4222.57 h 711.05 v 356.93 h -711.05 v 320.86 h 805.13 v 366.67 H 5831.61 V 3510.68 h 1235.5 v 366.67 h -833.56 v 345.22"
         style="fill:#161514;fill-opacity:1;fill-rule:nonzero;stroke:none"
         transform="matrix(0.13333333,0,0,-0.13333333,0,806.64)" />
      <path
         id="path25"
         d="m 7617.76,4222.57 h 711.06 v 356.93 h -711.06 v 320.86 h 805.14 v 366.67 H 7215.83 V 3510.68 h 1235.49 v 366.67 h -833.56 v 345.22"
         style="fill:#161514;fill-opacity:1;fill-rule:nonzero;stroke:none"
         transform="matrix(0.13333333,0,0,-0.13333333,0,806.64)" />
      <path
         id="path26"
         d="m 8600.04,4895.47 h 490.07 V 3510.68 h 404.15 v 1384.79 h 490.07 v 371.56 H 8600.04 v -371.56"
         style="fill:#161514;fill-opacity:1;fill-rule:nonzero;stroke:none"
         transform="matrix(0.13333333,0,0,-0.13333333,0,806.64)" />
      <path
         id="path27"
         d="m 11285.8,6049.17 c 0.7,0.87 2.2,0.75 2.8,-0.17 109,-165.39 104,-292.51 113.3,-402.27 38.4,-453.51 -509.5,-840.55 -509.5,-1282.41 0,-128.59 29.1,-252.31 131.4,-338.2 36.1,-30.35 76.6,-54.66 118,-76.99 7.3,-3.93 103.1,-59.12 88.6,-20.45 -38,101.33 -45.2,233.22 -29.5,324.86 22.3,130.32 90.8,253.41 193.7,337.13 1,0.86 2.6,0.05 2.5,-1.29 -9.1,-159.13 25.5,-320.54 99,-461.98 5.3,-10.26 11.5,-21.1 22.1,-25.8 17.2,-7.65 36.4,4.31 50.8,16.46 75.8,64 132,150.75 159.6,245.99 0.5,1.55 2.7,1.47 3,-0.1 49.6,-238.74 10,-494.95 -109.3,-707.61 -0.9,-1.53 1.1,-3.11 2.4,-1.93 138.2,124.65 209.5,312.42 220.5,498.46 11.1,189.18 -34.9,377.59 -99.6,555.72 -106.1,292.28 -228.8,584.76 -170.4,900.62 0.4,1.71 2.6,1.91 3.1,0.25 22.2,-75.87 57.1,-161.23 77.9,-209.26 91.4,-211.7 273.6,-363.42 364.7,-573.66 181,-417.98 -3.5,-964.29 -379.6,-1211.17 -39.1,-25.66 -82.1,-45.38 -126.6,-59.66 -155.4,-49.84 -232.9,-27.11 -395.4,22.79 -133.7,41.06 -286.3,152.02 -370,247.32 -82.4,93.72 -160.7,218.73 -186.3,340 -32.9,155.6 -17,343.46 42.7,493.75 54.5,137.32 157.3,248.41 253.4,357.87 126,143.65 234.7,304.1 308.6,480.92 36.4,87.04 64.1,177.68 81.6,270.39 9.1,48.4 15.5,97.32 19.1,146.44 3,40.81 -8.9,100.13 17.4,133.98"
         style="fill:#161514;fill-opacity:1;fill-rule:nonzero;stroke:none"
         transform="matrix(0.13333333,0,0,-0.13333333,0,806.64)" />
    </g>
  </g>
</svg>
